<?xml version="1.0" encoding="utf-8"?>
<!-- Generator: Adobe Illustrator 21.1.0, SVG Export Plug-In . SVG Version: 6.00 Build 0)  -->
<svg version="1.1" id="Layer_1" xmlns="http://www.w3.org/2000/svg" xmlns:xlink="http://www.w3.org/1999/xlink" x="0px" y="0px"
	 viewBox="0 0 32 32" style="enable-background:new 0 0 32 32;" xml:space="preserve">
<style type="text/css">
	.st0{fill:#4C4C4D;}
	.st1{fill:#71BB64;}
	.st2{fill:#0070B6;}
</style>
<polygon class="st0" points="13.3,14.3 8.7,21.2 2.5,21.2 7.2,14.3 "/>
<polygon class="st1" points="10.9,8.8 11.1,8.5 10.9,8.5 "/>
<path class="st2" d="M28,16.3c2.3-1,4-3.3,4-5.9C32,6.9,29.1,4,25.6,4H14.1l-3,4.5h16.8l-2.1,4.7c-0.3,0.7-0.9,1.1-1.6,1.1h-2
	c-1.1,0-2.2,0.6-2.8,1.5l-8,11.9c0,0,0.1,0,0.1,0H24c3.5,0,6.4-2.9,6.4-6.4c0-1-0.2-1.9-0.6-2.8C29.3,17.6,28.7,16.9,28,16.3z"/>
<polygon class="st0" points="11.1,8.5 7.2,14.2 0.3,14.2 4.1,8.5 "/>
</svg>
